{
  "accessors": [
    {
      "bufferView": 2,
      "componentType": 5126,
      "count": 28,
      "max": [
        88.65670776367188,
        53.24845886230469,
        93.50393676757813
      ],
      "min": [
        -81.22516632080078,
        -86.35781860351563,
        92.51968383789063
      ],
      "type": "VEC3"
    },
    {
      "bufferView": 0,
      "componentType": 5125,
      "count": 28,
      "type": "SCALAR"
    },
    {
      "bufferView": 2,
      "byteOffset": 336,
      "componentType": 5126,
      "count": 65533,
      "max": [
        32.71184158325195,
        54.74452209472656,
        95.27558898925781
      ],
      "min": [
        -82.72122955322266,
        -87.77513885498047,
        1.7716516256332397
      ],
      "type": "VEC3"
    },
    {
      "bufferView": 2,
      "byteOffset": 786732,
      "componentType": 5126,
      "count": 65533,
      "max": [
        1.0,
        1.0,
        1.0
      ],
      "min": [
        -1.0,
        -1.0,
        -1.0
      ],
      "type": "VEC3"
    },
    {
      "bufferView": 0,
      "byteOffset": 112,
      "componentType": 5125,
      "count": 129003,
      "type": "SCALAR"
    },
    {
      "bufferView": 2,
      "byteOffset": 1573128,
      "componentType": 5126,
      "count": 65534,
      "max": [
        78.72980499267578,
        54.74452209472656,
        95.27558898925781
      ],
      "min": [
        -65.91590118408203,
        -87.8538818359375,
        1.7716516256332397
      ],
      "type": "VEC3"
    },
    {
      "bufferView": 2,
      "byteOffset": 2359536,
      "componentType": 5126,
      "count": 65534,
      "max": [
        1.0,
        1.0,
        1.0
      ],
      "min": [
        -1.0,
        -1.0,
        -1.0
      ],
      "type": "VEC3"
    },
    {
      "bufferView": 0,
      "byteOffset": 516124,
      "componentType": 5125,
      "count": 129138,
      "type": "SCALAR"
    },
    {
      "bufferView": 2,
      "byteOffset": 3145944,
      "componentType": 5126,
      "count": 65532,
      "max": [
        90.15277099609375,
        54.74452209472656,
        95.27558898925781
      ],
      "min": [
        -52.3132209777832,
        -87.8538818359375,
        1.7716516256332397
      ],
      "type": "VEC3"
    },
    {
      "bufferView": 2,
      "byteOffset": 3932328,
      "componentType": 5126,
      "count": 65532,
      "max": [
        1.0,
        1.0,
        1.0
      ],
      "min": [
        -1.0,
        -1.0,
        -1.0
      ],
      "type": "VEC3"
    },
    {
      "bufferView": 0,
      "byteOffset": 1032676,
      "componentType": 5125,
      "count": 131418,
      "type": "SCALAR"
    },
    {
      "bufferView": 2,
      "byteOffset": 4718712,
      "componentType": 5126,
      "count": 65532,
      "max": [
        90.15277099609375,
        51.6844482421875,
        95.27558898925781
      ],
      "min": [
        -82.72122955322266,
        -85.76727294921875,
        1.7716516256332397
      ],
      "type": "VEC3"
    },
    {
      "bufferView": 2,
      "byteOffset": 5505096,
      "componentType": 5126,
      "count": 65532,
      "max": [
        1.0,
        1.0,
        1.0
      ],
      "min": [
        -1.0,
        -1.0,
        -1.0
      ],
      "type": "VEC3"
    },
    {
      "bufferView": 0,
      "byteOffset": 1558348,
      "componentType": 5125,
      "count": 151386,
      "type": "SCALAR"
    },
    {
      "bufferView": 2,
      "byteOffset": 6291480,
      "componentType": 5126,
      "count": 65532,
      "max": [
        96.37329864501953,
        60.965049743652344,
        95.11811065673828
      ],
      "min": [
        -88.94170379638672,
        -94.07434844970703,
        0.0
      ],
      "type": "VEC3"
    },
    {
      "bufferView": 2,
      "byteOffset": 7077864,
      "componentType": 5126,
      "count": 65532,
      "max": [
        1.0,
        1.0,
        1.0
      ],
      "min": [
        -1.0,
        -1.0,
        -1.0
      ],
      "type": "VEC3"
    },
    {
      "bufferView": 0,
      "byteOffset": 2163892,
      "componentType": 5125,
      "count": 234672,
      "type": "SCALAR"
    },
    {
      "bufferView": 2,
      "byteOffset": 7864248,
      "componentType": 5126,
      "count": 65532,
      "max": [
        90.15277099609375,
        54.587039947509766,
        95.27558898925781
      ],
      "min": [
        -83.03619384765625,
        -87.69640350341797,
        0.9842520356178284
      ],
      "type": "VEC3"
    },
    {
      "bufferView": 2,
      "byteOffset": 8650632,
      "componentType": 5126,
      "count": 65532,
      "max": [
        1.0,
        1.0,
        1.0
      ],
      "min": [
        -1.0,
        -1.0,
        -1.0
      ],
      "type": "VEC3"
    },
    {
      "bufferView": 0,
      "byteOffset": 3102580,
      "componentType": 5125,
      "count": 153855,
      "type": "SCALAR"
    },
    {
      "bufferView": 2,
      "byteOffset": 9437016,
      "componentType": 5126,
      "count": 65533,
      "max": [
        90.46773529052734,
        55.05948257446289,
        95.27558898925781
      ],
      "min": [
        -83.03619384765625,
        -88.16883850097656,
        3.143310678410671e-08
      ],
      "type": "VEC3"
    },
    {
      "bufferView": 2,
      "byteOffset": 10223412,
      "componentType": 5126,
      "count": 65533,
      "max": [
        1.0,
        1.0,
        1.0
      ],
      "min": [
        -1.0,
        -1.0,
        -1.0
      ],
      "type": "VEC3"
    },
    {
      "bufferView": 0,
      "byteOffset": 3718000,
      "componentType": 5125,
      "count": 204003,
      "type": "SCALAR"
    },
    {
      "bufferView": 2,
      "byteOffset": 11009808,
      "componentType": 5126,
      "count": 36987,
      "max": [
        90.15277099609375,
        6.785989761352539,
        95.27558898925781
      ],
      "min": [
        -82.72122955322266,
        -42.42660140991211,
        1.7716516256332397
      ],
      "type": "VEC3"
    },
    {
      "bufferView": 2,
      "byteOffset": 11453652,
      "componentType": 5126,
      "count": 36987,
      "max": [
        1.0,
        1.0,
        1.0
      ],
      "min": [
        -1.0,
        -1.0,
        -1.0
      ],
      "type": "VEC3"
    },
    {
      "bufferView": 0,
      "byteOffset": 4534012,
      "componentType": 5125,
      "count": 71451,
      "type": "SCALAR"
    },
    {
      "bufferView": 2,
      "byteOffset": 11897496,
      "componentType": 5126,
      "count": 400,
      "max": [
        96.37329864501953,
        60.965049743652344,
        95.11811065673828
      ],
      "min": [
        -88.94170379638672,
        -94.07434844970703,
        0.0
      ],
      "type": "VEC3"
    },
    {
      "bufferView": 2,
      "byteOffset": 11902296,
      "componentType": 5126,
      "count": 400,
      "max": [
        1.0,
        1.0,
        1.0
      ],
      "min": [
        -1.0,
        -1.0,
        -1.0
      ],
      "type": "VEC3"
    },
    {
      "bufferView": 0,
      "byteOffset": 4819816,
      "componentType": 5125,
      "count": 600,
      "type": "SCALAR"
    },
    {
      "bufferView": 2,
      "byteOffset": 11907096,
      "componentType": 5126,
      "count": 20,
      "max": [
        96.37329864501953,
        60.965049743652344,
        59.055118560791016
      ],
      "min": [
        -88.94170379638672,
        -94.07434844970703,
        11.811019897460938
      ],
      "type": "VEC3"
    },
    {
      "bufferView": 2,
      "byteOffset": 11907336,
      "componentType": 5126,
      "count": 20,
      "max": [
        0.0,
        0.0,
        1.0
      ],
      "min": [
        0.0,
        0.0,
        1.0
      ],
      "type": "VEC3"
    },
    {
      "bufferView": 1,
      "componentType": 5126,
      "count": 20,
      "max": [
        23.53499984741211,
        19.690000534057617
      ],
      "min": [
        0.0,
        0.0
      ],
      "type": "VEC2"
    },
    {
      "bufferView": 0,
      "byteOffset": 4822216,
      "componentType": 5125,
      "count": 42,
      "type": "SCALAR"
    },
    {
      "bufferView": 2,
      "byteOffset": 11907576,
      "componentType": 5126,
      "count": 4,
      "max": [
        96.37320709228516,
        60.965057373046875,
        0.0
      ],
      "min": [
        -83.03618621826172,
        -88.16883850097656,
        0.0
      ],
      "type": "VEC3"
    },
    {
      "bufferView": 2,
      "byteOffset": 11907624,
      "componentType": 5126,
      "count": 4,
      "max": [
        0.0,
        0.0,
        1.0
      ],
      "min": [
        0.0,
        0.0,
        1.0
      ],
      "type": "VEC3"
    },
    {
      "bufferView": 1,
      "byteOffset": 160,
      "componentType": 5126,
      "count": 4,
      "max": [
        16.470779418945313,
        12.427820205688477
      ],
      "min": [
        0.0,
        0.0
      ],
      "type": "VEC2"
    },
    {
      "bufferView": 0,
      "byteOffset": 4822384,
      "componentType": 5125,
      "count": 6,
      "type": "SCALAR"
    },
    {
      "bufferView": 2,
      "byteOffset": 11907672,
      "componentType": 5126,
      "count": 20,
      "max": [
        -60.86866760253906,
        43.490108489990234,
        59.055118560791016
      ],
      "min": [
        -83.03618621826172,
        6.994050025939941,
        0.0
      ],
      "type": "VEC3"
    },
    {
      "bufferView": 2,
      "byteOffset": 11907912,
      "componentType": 5126,
      "count": 20,
      "max": [
        1.0,
        1.0,
        0.0
      ],
      "min": [
        -1.0,
        -1.0,
        -1.0
      ],
      "type": "VEC3"
    },
    {
      "bufferView": 0,
      "byteOffset": 4822408,
      "componentType": 5125,
      "count": 30,
      "type": "SCALAR"
    }
  ],
  "asset": {
    "extras": {
      "author": "3DGrom (https://sketchfab.com/dizartoren)",
      "license": "CC-BY-4.0 (http://creativecommons.org/licenses/by/4.0/)",
      "source": "https://sketchfab.com/3d-models/clothing-warehouse-3616db804d964ea28672d088be54c503",
      "title": "Склад одежды  Clothing Warehouse"
    },
    "generator": "Sketchfab-16.74.0",
    "version": "2.0"
  },
  "bufferViews": [
    {
      "buffer": 0,
      "byteLength": 4822528,
      "name": "floatBufferViews",
      "target": 34963
    },
    {
      "buffer": 0,
      "byteLength": 192,
      "byteOffset": 4822528,
      "byteStride": 8,
      "name": "floatBufferViews",
      "target": 34962
    },
    {
      "buffer": 0,
      "byteLength": 11908152,
      "byteOffset": 4822720,
      "byteStride": 12,
      "name": "floatBufferViews",
      "target": 34962
    }
  ],
  "buffers": [
    {
      "byteLength": 16730872,
      "uri": "scene.bin"
    }
  ],
  "images": [
    {
      "uri": "textures/Brick_Common_Face_baseColor.png"
    },
    {
      "uri": "textures/Formica_Beige_baseColor.jpeg"
    }
  ],
  "materials": [
    {
      "name": "edge_color114114114255",
      "pbrMetallicRoughness": {
        "metallicFactor": 0.0,
        "roughnessFactor": 0.6
      }
    },
    {
      "name": "auto",
      "pbrMetallicRoughness": {
        "baseColorFactor": [
          0.10829235995947611,
          0.10829235995947611,
          0.10829235995947611,
          1.0
        ],
        "metallicFactor": 0.5775255696017358,
        "roughnessFactor": 0.4712364837683315
      }
    },
    {
      "name": "Color_M00",
      "pbrMetallicRoughness": {
        "baseColorFactor": [
          0.5329208617282817,
          0.5329208617282817,
          0.5329208617282817,
          1.0
        ],
        "metallicFactor": 0.5409540295741854,
        "roughnessFactor": 0.6
      }
    },
    {
      "name": "Brick_Common_Face",
      "pbrMetallicRoughness": {
        "baseColorTexture": {
          "index": 0
        },
        "metallicFactor": 0.0,
        "roughnessFactor": 0.6
      }
    },
    {
      "name": "Formica_Beige",
      "pbrMetallicRoughness": {
        "baseColorTexture": {
          "index": 1
        },
        "metallicFactor": 0.6323828796430617,
        "roughnessFactor": 0.19961965598371345
      }
    },
    {
      "name": "material",
      "pbrMetallicRoughness": {
        "metallicFactor": 0.0,
        "roughnessFactor": 0.6
      }
    }
  ],
  "meshes": [
    {
      "name": "Material2",
      "primitives": [
        {
          "attributes": {
            "POSITION": 0
          },
          "indices": 1,
          "material": 0,
          "mode": 1
        }
      ]
    },
    {
      "name": "Material2",
      "primitives": [
        {
          "attributes": {
            "NORMAL": 3,
            "POSITION": 2
          },
          "indices": 4,
          "material": 1,
          "mode": 4
        }
      ]
    },
    {
      "name": "Material2",
      "primitives": [
        {
          "attributes": {
            "NORMAL": 6,
            "POSITION": 5
          },
          "indices": 7,
          "material": 1,
          "mode": 4
        }
      ]
    },
    {
      "name": "Material2",
      "primitives": [
        {
          "attributes": {
            "NORMAL": 9,
            "POSITION": 8
          },
          "indices": 10,
          "material": 1,
          "mode": 4
        }
      ]
    },
    {
      "name": "Material2",
      "primitives": [
        {
          "attributes": {
            "NORMAL": 12,
            "POSITION": 11
          },
          "indices": 13,
          "material": 1,
          "mode": 4
        }
      ]
    },
    {
      "name": "Material2",
      "primitives": [
        {
          "attributes": {
            "NORMAL": 15,
            "POSITION": 14
          },
          "indices": 16,
          "material": 1,
          "mode": 4
        }
      ]
    },
    {
      "name": "Material2",
      "primitives": [
        {
          "attributes": {
            "NORMAL": 18,
            "POSITION": 17
          },
          "indices": 19,
          "material": 1,
          "mode": 4
        }
      ]
    },
    {
      "name": "Material2",
      "primitives": [
        {
          "attributes": {
            "NORMAL": 21,
            "POSITION": 20
          },
          "indices": 22,
          "material": 1,
          "mode": 4
        }
      ]
    },
    {
      "name": "Material2",
      "primitives": [
        {
          "attributes": {
            "NORMAL": 24,
            "POSITION": 23
          },
          "indices": 25,
          "material": 1,
          "mode": 4
        }
      ]
    },
    {
      "name": "Material3",
      "primitives": [
        {
          "attributes": {
            "NORMAL": 27,
            "POSITION": 26
          },
          "indices": 28,
          "material": 2,
          "mode": 4
        }
      ]
    },
    {
      "name": "Material2",
      "primitives": [
        {
          "attributes": {
            "NORMAL": 30,
            "POSITION": 29,
            "TEXCOORD_0": 31
          },
          "indices": 32,
          "material": 3,
          "mode": 4
        }
      ]
    },
    {
      "name": "Material2",
      "primitives": [
        {
          "attributes": {
            "NORMAL": 34,
            "POSITION": 33,
            "TEXCOORD_0": 35
          },
          "indices": 36,
          "material": 4,
          "mode": 4
        }
      ]
    },
    {
      "name": "Material2",
      "primitives": [
        {
          "attributes": {
            "NORMAL": 38,
            "POSITION": 37
          },
          "indices": 39,
          "material": 5,
          "mode": 4
        }
      ]
    }
  ],
  "nodes": [
    {
      "children": [
        1
      ],
      "matrix": [
        1.0,
        0.0,
        0.0,
        0.0,
        0.0,
        2.220446049250313e-16,
        -1.0,
        0.0,
        0.0,
        1.0,
        2.220446049250313e-16,
        0.0,
        0.0,
        0.0,
        0.0,
        1.0
      ],
      "name": "Sketchfab_model"
    },
    {
      "children": [
        2,
        3,
        4,
        5,
        6,
        7,
        8,
        9,
        10,
        11,
        12,
        13,
        14,
        15
      ],
      "name": "Collada visual scene group"
    },
    {
      "mesh": 0,
      "name": "Material2"
    },
    {
      "mesh": 1,
      "name": "Material2"
    },
    {
      "mesh": 2,
      "name": "Material2"
    },
    {
      "mesh": 3,
      "name": "Material2"
    },
    {
      "mesh": 4,
      "name": "Material2"
    },
    {
      "mesh": 5,
      "name": "Material2"
    },
    {
      "mesh": 6,
      "name": "Material2"
    },
    {
      "mesh": 7,
      "name": "Material2"
    },
    {
      "mesh": 8,
      "name": "Material2"
    },
    {
      "mesh": 9,
      "name": "Material3"
    },
    {
      "mesh": 10,
      "name": "Material2"
    },
    {
      "mesh": 11,
      "name": "Material2"
    },
    {
      "mesh": 12,
      "name": "Material2"
    },
    {
      "children": [
        16
      ],
      "name": "SketchUp"
    },
    {
      "children": [
        17
      ],
      "matrix": [
        -0.8151259,
        0.5792838,
        1.387779e-16,
        0.0,
        -0.3805894,
        -0.5355377,
        0.7538906,
        0.0,
        0.4367166,
        0.6145158,
        0.6569999,
        0.0,
        283.2926,
        412.274,
        482.377,
        1.0
      ],
      "name": "skp_camera_Last_Saved_SketchUp_View"
    },
    {
      "name": "ID1"
    }
  ],
  "samplers": [
    {
      "magFilter": 9729,
      "minFilter": 9987,
      "wrapS": 10497,
      "wrapT": 10497
    }
  ],
  "scene": 0,
  "scenes": [
    {
      "name": "Sketchfab_Scene",
      "nodes": [
        0
      ]
    }
  ],
  "textures": [
    {
      "sampler": 0,
      "source": 0
    },
    {
      "sampler": 0,
      "source": 1
    }
  ]
}
